<?xml version="1.0" encoding="UTF-8"?>
<!-- Created with Inkscape (http://www.inkscape.org/) -->
<svg width="128" height="64" version="1.1" viewBox="0 0 128 64" xml:space="preserve" xmlns="http://www.w3.org/2000/svg"><g stroke="#000"><path d="m2 48v-8" fill="#af9422" stroke-width="4"/><path d="m126 48v-8" fill="#af9422" stroke-width="4"/><path d="m24 4c-12 0-20 12-20 24l5e-6 24h4c0 4.4183 3.5817 8 8 8s8-3.5817 8-8h4c0 4.4183 3.5817 8 8 8s8-3.5817 8-8h40c0 4.4183 3.5817 8 8 8s8-3.5817 8-8h4c0 4.4183 3.5817 8 8 8s8-3.5817 8-8h4v-24c0-12-8-24-20-24z" fill="#bbb" stroke-width="2"/></g></svg>
