<?xml version="1.0" encoding="UTF-8"?>
<!-- Created with Inkscape (http://www.inkscape.org/) -->
<svg width="128" height="64" version="1.1" viewBox="0 0 128 64" xml:space="preserve" xmlns="http://www.w3.org/2000/svg"><g stroke="#000"><path d="m126 48v-32" fill="#af9422" stroke-width="4"/><path d="m2 48v-32" fill="#af9422" stroke-width="4"/><path d="m4 4 1e-5 48h4c0 4.4183 3.5817 8 8 8s8-3.5817 8-8h4c0 4.4183 3.5817 8 8 8s8-3.5817 8-8h40c0 4.4183 3.5817 8 8 8s8-3.5817 8-8h4c0 4.4183 3.5817 8 8 8s8-3.5817 8-8h4l-1e-5 -48z" fill="#fff" stroke-width="2"/></g></svg>
