<?xml version="1.0" encoding="UTF-8"?>
<!-- Created with Inkscape (http://www.inkscape.org/) -->
<svg width="128" height="64" version="1.1" viewBox="0 0 128 64" xml:space="preserve" xmlns="http://www.w3.org/2000/svg"><g stroke="#000"><path d="m2 48v-32" fill="#af9422" stroke-width="4"/><path d="m104 4c12 0 20 12 20 24l-2e-5 24h-4c0 4.4183-3.5817 8-8 8-4.4183 0-8-3.5817-8-8h-4c0 4.4183-3.5817 8-8 8s-8-3.5817-8-8h-40c0 4.4183-3.5817 8-8 8s-8-3.5817-8-8h-4c0 4.4183-3.5817 8-8 8s-8-3.5817-8-8h-4l1e-5 -48z" fill="#fff" stroke-width="2"/></g></svg>
